name ./resultDataOpenSim/trcMotMarkerGrf/sub06/grf-01-04.mot
datacolumns 19
datarows 22
range 1.02800000 1.11200000
endheader

                time	     ground_force_vx	     ground_force_vy	     ground_force_vz	     ground_force_px	     ground_force_py	     ground_force_pz	   l_ground_force_vx	   l_ground_force_vy	   l_ground_force_vz	   l_ground_force_px	   l_ground_force_py	   l_ground_force_pz	     ground_torque_x	     ground_torque_y	     ground_torque_z	   l_ground_torque_x	   l_ground_torque_y	   l_ground_torque_z	
          1.02800000	          0.00000000	          0.00000000	          0.00000000	          0.00000000	          0.00000000	          0.00000000	         66.57278966	        564.84038288	         23.41749054	          0.08258557	         -0.00000000	         -0.01931646	          0.00000000	          0.00000000	          0.00000000	          0.00000000	         -1.48249926	          0.00000000	
          1.03200000	          0.00000000	          0.00000000	          0.00000000	          0.00000000	          0.00000000	          0.00000000	         71.11422914	        578.88590038	         24.52500443	          0.08300276	         -0.00000000	         -0.01912594	          0.00000000	          0.00000000	          0.00000000	          0.00000000	         -1.50495691	          0.00000000	
          1.03600000	          0.00000000	          0.00000000	          0.00000000	          0.00000000	          0.00000000	          0.00000000	         75.57554335	        593.63364978	         25.81142843	          0.08342060	         -0.00000000	         -0.01893947	          0.00000000	          0.00000000	          0.00000000	          0.00000000	         -1.52619570	          0.00000000	
          1.04000000	          0.00000000	          0.00000000	          0.00000000	          0.00000000	          0.00000000	          0.00000000	         79.99553967	        608.83695629	         27.23714804	          0.08382963	         -0.00000000	         -0.01877657	          0.00000000	          0.00000000	          0.00000000	          0.00000000	         -1.54659349	          0.00000000	
          1.04400000	          0.00000000	          0.00000000	          0.00000000	          0.00000000	          0.00000000	          0.00000000	         84.41693127	        624.25851400	         28.72724287	          0.08423247	         -0.00000000	         -0.01865351	          0.00000000	          0.00000000	          0.00000000	          0.00000000	         -1.56652713	          0.00000000	
          1.04800000	          0.00000000	          0.00000000	          0.00000000	          0.00000000	          0.00000000	          0.00000000	         88.87544289	        639.73143996	         30.18665691	          0.08463565	         -0.00000000	         -0.01857430	          0.00000000	          0.00000000	          0.00000000	          0.00000000	         -1.58688861	          0.00000000	
          1.05200000	          0.00000000	          0.00000000	          0.00000000	          0.00000000	          0.00000000	          0.00000000	         93.39764699	        655.09560518	         31.52523370	          0.08504697	         -0.00000000	         -0.01852200	          0.00000000	          0.00000000	          0.00000000	          0.00000000	         -1.60932483	          0.00000000	
          1.05600000	          0.00000000	          0.00000000	          0.00000000	          0.00000000	          0.00000000	          0.00000000	         97.99918339	        670.09679285	         32.67229572	          0.08548984	         -0.00000000	         -0.01846628	          0.00000000	          0.00000000	          0.00000000	          0.00000000	         -1.63605270	          0.00000000	
          1.06000000	          0.00000000	          0.00000000	          0.00000000	          0.00000000	          0.00000000	          0.00000000	        102.68583079	        684.37904403	         33.57891266	          0.08601245	         -0.00000000	         -0.01837361	          0.00000000	          0.00000000	          0.00000000	          0.00000000	         -1.66925174	          0.00000000	
          1.06400000	          0.00000000	          0.00000000	          0.00000000	          0.00000000	          0.00000000	          0.00000000	        107.45821406	        697.57281605	         34.21763220	          0.08665503	         -0.00000000	         -0.01821561	          0.00000000	          0.00000000	          0.00000000	          0.00000000	         -1.71023215	          0.00000000	
          1.06800000	          0.00000000	          0.00000000	          0.00000000	          0.00000000	          0.00000000	          0.00000000	        112.31231471	        709.38961566	         34.58620315	          0.08741094	         -0.00000000	         -0.01798481	          0.00000000	          0.00000000	          0.00000000	          0.00000000	         -1.75871859	          0.00000000	
          1.07200000	          0.00000000	          0.00000000	          0.00000000	          0.00000000	          0.00000000	          0.00000000	        117.23778341	        719.64611683	         34.71270957	          0.08823807	         -0.00000000	         -0.01769803	          0.00000000	          0.00000000	          0.00000000	          0.00000000	         -1.81254577	          0.00000000	
          1.07600000	          0.00000000	          0.00000000	          0.00000000	          0.00000000	          0.00000000	          0.00000000	        122.22418771	        728.21625263	         34.65312825	          0.08909076	         -0.00000000	         -0.01738144	          0.00000000	          0.00000000	          0.00000000	          0.00000000	         -1.86786808	          0.00000000	
          1.08000000	          0.00000000	          0.00000000	          0.00000000	          0.00000000	          0.00000000	          0.00000000	        127.26826708	        734.98061297	         34.47801296	          0.08992983	         -0.00000000	         -0.01706814	          0.00000000	          0.00000000	          0.00000000	          0.00000000	         -1.91980272	          0.00000000	
          1.08400000	          0.00000000	          0.00000000	          0.00000000	          0.00000000	          0.00000000	          0.00000000	        132.36726742	        739.82665707	         34.25527621	          0.09072928	         -0.00000000	         -0.01678224	          0.00000000	          0.00000000	          0.00000000	          0.00000000	         -1.96332519	          0.00000000	
          1.08800000	          0.00000000	          0.00000000	          0.00000000	          0.00000000	          0.00000000	          0.00000000	        137.50445421	        742.66258299	         34.03569274	          0.09148132	         -0.00000000	         -0.01653193	          0.00000000	          0.00000000	          0.00000000	          0.00000000	         -1.99417476	          0.00000000	
          1.09200000	          0.00000000	          0.00000000	          0.00000000	          0.00000000	          0.00000000	          0.00000000	        142.64545694	        743.41214818	         33.84531954	          0.09219102	         -0.00000000	         -0.01631728	          0.00000000	          0.00000000	          0.00000000	          0.00000000	         -2.00951137	          0.00000000	
          1.09600000	          0.00000000	          0.00000000	          0.00000000	          0.00000000	          0.00000000	          0.00000000	        147.74601459	        742.02492970	         33.68710062	          0.09287210	         -0.00000000	         -0.01613604	          0.00000000	          0.00000000	          0.00000000	          0.00000000	         -2.00818515	          0.00000000	
          1.10000000	          0.00000000	          0.00000000	          0.00000000	          0.00000000	          0.00000000	          0.00000000	        152.75310378	        738.49555843	         33.54842988	          0.09353666	         -0.00000000	         -0.01599052	          0.00000000	          0.00000000	          0.00000000	          0.00000000	         -1.99069360	          0.00000000	
          1.10400000	          0.00000000	          0.00000000	          0.00000000	          0.00000000	          0.00000000	          0.00000000	        157.60263643	        732.85677736	         33.41030877	          0.09418579	         -0.00000000	         -0.01588223	          0.00000000	          0.00000000	          0.00000000	          0.00000000	         -1.95897970	          0.00000000	
          1.10800000	          0.00000000	          0.00000000	          0.00000000	          0.00000000	          0.00000000	          0.00000000	        162.23429585	        725.16396194	         33.25081986	          0.09484501	         -0.00000000	         -0.01578766	          0.00000000	          0.00000000	          0.00000000	          0.00000000	         -1.91609996	          0.00000000	
          1.11200000	          0.00000000	          0.00000000	          0.00000000	          0.00000000	          0.00000000	          0.00000000	        166.60595196	        715.48301345	         33.03704923	          0.09556273	         -0.00000000	         -0.01567387	          0.00000000	          0.00000000	          0.00000000	          0.00000000	         -1.86570830	          0.00000000	
